/vscmnt/brussel_pixiu_data/_data_brussel/112/vsc11236/PredSimResults/SUBJ07opt3D/weighted-expIG/worker_03.mot
version=1
nRows=10
nColumns=50
inDegrees=yes
endheader
                time	         pelvis_tilt	         pelvis_list	     pelvis_rotation	           pelvis_tx	           pelvis_ty	           pelvis_tz	       hip_flexion_r	     hip_adduction_r	      hip_rotation_r	        knee_angle_r	       ankle_angle_r	         mtp_angle_r	       hip_flexion_l	     hip_adduction_l	      hip_rotation_l	        knee_angle_l	       ankle_angle_l	         mtp_angle_l	    lumbar_extension	      lumbar_bending	     lumbar_rotation	 ercspn_r/activation	 intobl_r/activation	 extobl_r/activation	    abd_r/activation	    add_r/activation	hamstrings_r/activation	bifemsh_r/activation	glut_max_r/activation	iliopsoas_r/activation	rect_fem_r/activation	  vasti_r/activation	gastroc_r/activation	 soleus_r/activation	tib_ant_r/activation	 ercspn_l/activation	 intobl_l/activation	 extobl_l/activation	    abd_l/activation	    add_l/activation	hamstrings_l/activation	bifemsh_l/activation	glut_max_l/activation	iliopsoas_l/activation	rect_fem_l/activation	  vasti_l/activation	gastroc_l/activation	 soleus_l/activation	tib_ant_l/activation	
          1.65965760	         -4.31649598	          0.23843052	         -9.38532825	          2.05797543	          0.84566784	          0.01427262	        -14.83943707	         -0.18037111	          5.21987637	         -8.86348858	          8.20526164	         29.24723350	         31.24002638	         -2.72330468	         -5.82786917	         -8.24510037	          2.64932353	          0.27424087	        -11.92789057	          1.22472304	          1.59656427	          0.11848127	          0.00999999	          0.00999999	          0.03206503	          0.05578971	          0.01737005	          0.16804958	          0.01967898	          0.42277745	          0.01184405	          0.00999999	          0.16690699	          0.32335646	          0.01732665	          0.12589128	          0.12559665	          0.00999999	          0.01466334	          0.18280635	          0.09144432	          0.10815466	          0.11025194	          0.04586763	          0.00999999	          0.00999999	          0.00999999	          0.00999999	          0.43107201	
          1.67072199	         -4.30758333	          0.19383045	         -9.43445477	          2.07453929	          0.84393720	          0.01379990	        -15.31429531	         -0.28204664	          4.91399342	        -10.01715161	          7.23191642	         30.89017060	         31.21067578	         -2.53302793	         -5.52325997	        -10.17060057	          2.28024632	          0.25051656	        -11.76844334	          0.86230804	          1.79116957	          0.14147200	          0.00999999	          0.00999999	          0.02707265	          0.08763123	          0.01466562	          0.14188507	          0.01661506	          0.40541617	          0.00999999	          0.00999999	          0.14092037	          0.30227045	          0.01462897	          0.10629061	          0.12663923	          0.00999999	          0.01238033	          0.17024044	          0.07970883	          0.10222107	          0.17374406	          0.03872626	          0.00999999	          0.00999999	          0.01402817	          0.01184405	          0.47520583	
          1.68178637	         -4.29300384	          0.13700082	         -9.42708819	          2.09123945	          0.84244294	          0.01325840	        -15.57927007	         -0.34394739	          4.55571134	        -11.57214753	          6.14353538	         32.49431291	         31.02882705	         -2.38162936	         -5.19055884	        -11.88056359	          1.87946031	          0.24129728	        -11.61016137	          0.50928199	          1.97393200	          0.16217861	          0.00999999	          0.00999999	          0.02285757	          0.07874397	          0.01238226	          0.11979424	          0.01402817	          0.35230976	          0.00999999	          0.00999999	          0.11897974	          0.27860682	          0.01235131	          0.13700984	          0.10692211	          0.00999999	          0.09005889	          0.18065144	          0.07000145	          0.10142810	          0.18346700	          0.03269677	          0.00999999	          0.00999999	          0.01184405	          0.00999999	          0.55204154	
          1.69285076	         -4.27450806	          0.05916216	         -9.36496403	          2.10787413	          0.84133195	          0.01262471	        -15.57839242	         -0.35847438	          4.15321959	        -13.58650483	          4.89883633	         33.99154399	         30.78546581	         -2.24475273	         -4.92254087	        -13.47269052	          1.47296359	          0.22004946	        -11.47352342	          0.17676459	          2.14235303	          0.19998719	          0.00999999	          0.00999999	          0.01929876	          0.07717486	          0.01414424	          0.10114286	          0.01184405	          0.29745682	          0.00999999	          0.00999999	          0.10045517	          0.24195546	          0.01042827	          0.15362128	          0.09027485	          0.00999999	          0.14697919	          0.19016524	          0.05910256	          0.08563623	          0.21487637	          0.02760604	          0.00999999	          0.00999999	          0.00999999	          0.00999999	          0.57248795	
          1.70391514	         -4.25262060	         -0.02863536	         -9.25383208	          2.12425279	          0.84075645	          0.01191284	        -15.25773979	         -0.33794051	          3.71617382	        -16.11756662	          3.50696020	         35.19536102	         30.57917960	         -2.11611661	         -4.70683345	        -15.15552343	          1.36702633	          0.19623737	        -11.37129670	         -0.14832354	          2.29289502	          0.24284288	          0.00999999	          0.00999999	          0.01629403	          0.09685875	          0.01511035	          0.09308684	          0.00999999	          0.25114421	          0.00999999	          0.00999999	          0.08481478	          0.20428415	          0.00999999	          0.16201841	          0.07621949	          0.00999999	          0.18861477	          0.20882041	          0.05019272	          0.07230308	          0.23942246	          0.02330791	          0.00999999	          0.03075117	          0.00999999	          0.00999999	          0.56380383	
          1.71497952	         -4.22880221	         -0.12030263	         -9.09581604	          2.14023970	          0.84085251	          0.01113692	        -14.56862617	         -0.28952320	          3.24905634	        -19.21801902	          1.99405522	         35.83350281	         30.42421363	         -1.99062935	         -4.53610431	        -16.93371050	          1.61259861	          0.17636575	        -11.30900872	         -0.47048261	          2.42267536	          0.26924272	          0.00999999	          0.00999999	          0.01375713	          0.12877452	          0.01643618	          0.07859367	          0.00999999	          0.21204226	          0.00999999	          0.00999999	          0.07160952	          0.17247809	          0.00999999	          0.17241377	          0.06435248	          0.00999999	          0.20798766	          0.22776670	          0.04526059	          0.06104584	          0.24838452	          0.01967898	          0.00999999	          0.06091773	          0.00999999	          0.00999999	          0.50930295	
          1.72604391	         -4.20464296	         -0.21617590	         -8.89296501	          2.15582736	          0.84164834	          0.01031865	        -13.49948614	         -0.21781009	          2.76628574	        -22.87449189	          0.30978348	         35.74689660	         30.24702171	         -1.86150336	         -4.38947510	        -18.66106210	          2.18937653	          0.18089790	        -11.27685359	         -0.78670637	          2.53016993	          0.28783144	          0.00999999	          0.00999999	          0.01161521	          0.15682822	          0.01569203	          0.06635702	          0.00999999	          0.17902830	          0.00999999	          0.00999999	          0.06046026	          0.14562408	          0.00999999	          0.15919793	          0.05433311	          0.00999999	          0.21355554	          0.23549891	          0.04387590	          0.05154129	          0.23895901	          0.01661506	          0.00999999	          0.10701173	          0.00999999	          0.00999999	          0.43000692	
          1.73710829	         -4.18319135	         -0.31556588	         -8.64690726	          2.17103821	          0.84311302	          0.00946518	        -12.06930278	         -0.12938357	          2.30107589	        -26.97923637	         -1.71089302	         34.95934588	         29.94317879	         -1.71553902	         -4.23032931	        -20.13168617	          3.01739695	          0.25521758	        -11.26462163	         -1.09188029	          2.61641324	          0.28689394	          0.00999999	          0.00999999	          0.00999999	          0.16774445	          0.01324886	          0.06453340	          0.00999999	          0.15115445	          0.00999999	          0.00999999	          0.05104689	          0.12295111	          0.00999999	          0.13441158	          0.04587370	          0.00999999	          0.21413259	          0.22883069	          0.04996044	          0.04351656	          0.20684757	          0.01402817	          0.00999999	          0.14501199	          0.00999999	          0.00999999	          0.36305691	
          1.74817268	         -4.16780333	         -0.41747793	         -8.35806581	          2.18587117	          0.84515971	          0.00857598	        -10.31830757	         -0.02551574	          1.89412638	        -31.37871523	         -4.15943260	         33.43898209	         29.45002197	         -1.54247376	         -4.02135561	        -21.19613849	          3.88574195	          0.40246252	        -11.27014079	         -1.38166800	          2.68192290	          0.27685219	          0.00999999	          0.00999999	          0.00999999	          0.17194989	          0.01834865	          0.05448586	          0.00999999	          0.12762043	          0.00999999	          0.00999999	          0.04309913	          0.10380821	          0.02100804	          0.11348434	          0.03873139	          0.00999999	          0.21057922	          0.21084239	          0.06237054	          0.03674124	          0.17464240	          0.01184405	          0.00999999	          0.17161493	          0.00999999	          0.00999999	          0.30653069	
          1.75923706	         -4.16034223	         -0.52002147	         -8.02890310	          2.20031179	          0.84763849	          0.00767138	         -8.30926395	          0.10376491	          1.57944318	        -35.93973567	         -6.67746928	         30.72276479	         28.75997728	         -1.34496572	         -3.75706510	        -21.81865890	          4.67131438	          0.61765500	        -11.29484929	         -1.65624205	          2.72616267	          0.28692389	          0.03283079	          0.00999999	          0.01402817	          0.15672139	          0.01740737	          0.04600268	          0.01661506	          0.10775054	          0.00999999	          0.00999999	          0.03638881	          0.08764577	          0.18883353	          0.09581537	          0.03270110	          0.00999999	          0.21972061	          0.17801524	          0.07253755	          0.03102081	          0.14745141	          0.00999999	          0.00999999	          0.19874633	          0.00999999	          0.00999999	          0.26554171	
